<svg xmlns="http://www.w3.org/2000/svg" viewBox="0 0 1280 800">
  <defs>
    <style>
      .cls-1 {
        fill: #fff8e3;
      }

      .cls-2 {
        fill: #fffc9c;
      }

      .cls-3 {
        fill: #162433;
      }

      .cls-4 {
        fill: #5e4318;
      }

      .cls-5 {
        fill: #0a600a;
      }

      .cls-6 {
        fill: #035903;
      }

      .cls-7 {
        fill: #094c09;
      }

      .cls-8 {
        fill: #005e00;
      }

      .cls-9 {
        fill: #060;
      }

      .cls-10 {
        fill: #aa5b30;
      }

      .cls-11 {
        fill: #cc7236;
      }

      .cls-12 {
        fill: #360;
      }

      .cls-13 {
        fill: #191919;
      }

      .cls-14 {
        fill: #294900;
      }

      .cls-15 {
        fill: #cecece;
      }

      .cls-16 {
        fill: #828282;
      }
    </style>
  </defs>
  <title>SVG_abbyColeman</title>
  <g id="stars">
    <g id="stars2">
      <path class="cls-1" d="M175.3,98.4c-3.9-.3-7.7-.7-11.5-1.3a186.7,186.7,0,0,0-2.1-21,1.5,1.5,0,0,0-2.9-.3c-2.3,6.3-4.7,12.5-7,18.8-3.6-1-7.1-2.1-10.6-3.3-1.2-.5-2.2,1.2-1.6,2.2l8,12.4c-1.2,3.1-2.4,6.3-3.5,9.4a1.4,1.4,0,0,0-2.2-.1l-2.7,3.4c-1,1.3.3,3.4,1.8,2.4l1.7-1.1a1.6,1.6,0,0,0,2.9-.3l.9-2.2c2-1.3,4-2.6,6.1-3.8l7.5,11.7c.7,1,2.6,1,2.8-.4a177,177,0,0,0,1-17.8c4-2.1,8.1-4.1,12.2-5.9C177.6,100.5,176.6,98.5,175.3,98.4ZM159.6,82.2q.9,7.2,1.2,14.4l-6.1-1.3C156.3,90.9,158,86.6,159.6,82.2Zm1.3,17.4c.1,1.9.1,3.8.1,5.7l-7.5,4.2-2.6-4,2.7-7.4Zm-16.4-4.1,6.3,1.9c-.7,1.6-1.3,3.3-1.9,5Zm3.7,17.2c.5-1.2,1-2.5,1.4-3.7l1.3,2Zm12.1,7.4-5.1-8.1,5.7-3.2C160.8,112.5,160.7,116.3,160.3,120.1Zm3.6-20,5.8.8c-2,.9-3.9,1.9-5.8,2.9Z"/>
      <path class="cls-1" d="M1108.8,83.8a87.7,87.7,0,0,1-11.5,1,202.2,202.2,0,0,0-6.1-20.1,1.5,1.5,0,0,0-3,.3c-1,6.5-2.1,13.1-3.1,19.7-3.7-.2-7.4-.6-11-1.1-1.3-.2-2,1.6-1.2,2.5l10.3,10.5c-.6,3.4-1.1,6.7-1.6,10a1.3,1.3,0,0,0-2.1.3l-2.1,3.9c-.7,1.4,1.1,3.2,2.3,1.9a9.3,9.3,0,0,0,1.4-1.4,1.7,1.7,0,0,0,2.9-.8,20,20,0,0,1,.4-2.4l5.2-4.9,9.7,10c.8.8,2.7.4,2.6-1a171.4,171.4,0,0,0-2.5-17.5c3.5-2.9,7.1-5.6,10.8-8.3C1111.5,85.4,1110.1,83.7,1108.8,83.8Zm-18.5-12.7c1.5,4.5,2.8,9.2,4,13.8h-6.2C1088.8,80.3,1089.5,75.7,1090.3,71.1Zm4.7,16.8,1.2,5.6c-2.2,1.8-4.4,3.6-6.5,5.5l-3.3-3.4,1.2-7.7Zm-16.9-.8c2.2.3,4.3.5,6.5.6-.3,1.7-.6,3.5-.8,5.2Zm7,16.1c.2-1.3.5-2.6.7-3.9a13.7,13.7,0,0,0,1.7,1.7Zm13.4,4.8c-2.3-2.2-4.5-4.5-6.7-6.8l5-4.4C1097.5,100.6,1098,104.3,1098.5,108Zm-.5-20.2,5.8-.4c-1.7,1.3-3.4,2.6-5,4C1098.5,90.2,1098.3,89,1098,87.8Z"/>
      <path class="cls-1" d="M837.1,47c-3.8-.2-7.7-.5-11.5-.9a183.8,183.8,0,0,0-2.7-20.9,1.5,1.5,0,0,0-3-.2l-6.3,18.9A99.5,99.5,0,0,1,802.9,41c-1.2-.4-2.2,1.3-1.5,2.3l8.4,12.1c-1.1,3.2-2.2,6.4-3.2,9.6a1.4,1.4,0,0,0-2.2-.1c-.9,1.2-1.7,2.4-2.6,3.5s.5,3.4,1.9,2.3l1.7-1.2a1.6,1.6,0,0,0,2.9-.3,20.9,20.9,0,0,1,.8-2.3c1.9-1.4,3.9-2.7,5.9-4l8,11.5c.6.9,2.6.8,2.7-.6a174.3,174.3,0,0,0,.4-17.7c3.9-2.2,7.9-4.4,12-6.4C839.5,49,838.5,47,837.1,47ZM820.9,31.3c.8,4.8,1.3,9.6,1.7,14.3l-6.1-1C818,40.2,819.4,35.7,820.9,31.3Zm1.9,17.4c.2,1.9.2,3.8.3,5.7-2.5,1.4-4.9,2.9-7.3,4.4l-2.7-3.9,2.4-7.5C818,47.9,820.4,48.4,822.8,48.7Zm-16.5-3.5,6.3,1.6c-.5,1.7-1.1,3.3-1.7,5Zm4.3,17c.4-1.3.9-2.5,1.3-3.8a14.3,14.3,0,0,0,1.4,2ZM823,69.1l-5.5-7.8,5.7-3.5C823.2,61.6,823.2,65.4,823,69.1Zm2.9-20,5.7.5L826,52.7C826,51.5,825.9,50.3,825.9,49.1Z"/>
      <path class="cls-1" d="M178.5,427.5a109.4,109.4,0,0,1-10.7,4.4,167.3,167.3,0,0,0-11.9-17.4,1.5,1.5,0,0,0-2.7,1.1c1,6.6,1.9,13.2,2.9,19.8a103.4,103.4,0,0,1-10.8,2.2,1.6,1.6,0,0,0-.4,2.8l12.9,7,1.5,10c-.8-.3-1.8-.1-1.9.9s-.6,2.9-.8,4.3,1.9,2.8,2.7,1.2a16.2,16.2,0,0,1,1-1.8,1.6,1.6,0,0,0,2.4-1.6l-.3-2.4c1.1-2.1,2.3-4.2,3.5-6.3l12.3,6.7c1,.5,2.7-.4,2.2-1.7-2.3-5.5-4.9-10.8-7.6-16,2.5-3.8,5-7.5,7.8-11.1C181.6,428.3,179.7,427,178.5,427.5ZM157,420.9c2.8,3.9,5.4,7.9,7.9,12a57.6,57.6,0,0,1-5.9,1.8C158.3,430.1,157.6,425.5,157,420.9Zm9.5,14.6,2.8,5q-2.4,3.6-4.5,7.2l-4.2-2.3-1.2-7.7Zm-16.3,4.3,6.3-1.4c.3,1.8.5,3.5.8,5.3Zm11.5,13.3-.6-4,2.1,1.2Zm14.1.6-8.4-4.5,3.5-5.7C172.7,446.9,174.3,450.3,175.8,453.7Zm-6.4-19.2q2.7-.9,5.4-2.1c-1.2,1.8-2.5,3.5-3.6,5.3Z"/>
    </g>
    <g id="stars1">
      <path class="cls-2" d="M449.1,68.2c-3.8.7-7.7,1.2-11.5,1.6A180.6,180.6,0,0,0,430.4,50a1.5,1.5,0,0,0-3,.4c-.7,6.7-1.3,13.3-2,20-3.7-.1-7.4-.2-11.1-.6-1.3-.1-1.9,1.8-1,2.6l10.9,9.9c-.4,3.4-.7,6.8-1.1,10.1a1.3,1.3,0,0,0-2.1.5l-1.8,3.9c-.6,1.5,1.2,3.2,2.4,1.8l1.4-1.5a1.6,1.6,0,0,0,2.7-.9l.3-2.5,4.9-5.2L441.2,98c.9.8,2.8.3,2.5-1.1a167.2,167.2,0,0,0-3.4-17.4c3.3-3.1,6.7-6,10.2-8.9C451.8,69.6,450.3,67.9,449.1,68.2ZM429.8,56.4c1.8,4.5,3.4,9.1,4.8,13.7l-6.2.2C428.9,65.7,429.3,61.1,429.8,56.4ZM435.5,73l1.5,5.4-6.2,6-3.5-3.3c.2-2.6.5-5.2.8-7.8Zm-16.9.1c2.1.2,4.3.2,6.5.2l-.6,5.3Zm7.9,15.7c.1-1.3.3-2.6.4-3.9l1.8,1.6Zm13.6,4.1L433,86.4l4.8-4.6C438.7,85.5,439.4,89.2,440.1,92.9Zm-1.6-20.2,5.8-.7-4.9,4.2Z"/>
      <path class="cls-2" d="M1009,93.6A109.4,109.4,0,0,1,998.3,98a184.5,184.5,0,0,0-11.9-17.4,1.5,1.5,0,0,0-2.7,1.1c.9,6.6,1.9,13.2,2.8,19.8a93.8,93.8,0,0,1-10.8,2.2c-1.3.2-1.4,2.2-.3,2.8l12.9,7c.5,3.3,1,6.6,1.4,10a1.3,1.3,0,0,0-1.9.9c-.2,1.5-.5,2.9-.8,4.3s2,2.8,2.8,1.2l.9-1.8a1.7,1.7,0,0,0,2.5-1.6,20,20,0,0,0-.4-2.4l3.5-6.3,12.3,6.7c1,.5,2.8-.4,2.2-1.7-2.3-5.5-4.8-10.8-7.6-16.1,2.5-3.7,5.1-7.4,7.8-11C1012,94.4,1010.2,93.1,1009,93.6ZM987.4,87c2.8,3.9,5.5,7.9,8,12l-6,1.8C988.8,96.2,988.1,91.6,987.4,87Zm9.6,14.6,2.8,5c-1.6,2.4-3.1,4.8-4.6,7.2l-4.2-2.3c-.4-2.6-.7-5.1-1.1-7.7Zm-16.4,4.3,6.4-1.4c.2,1.8.5,3.5.7,5.3Zm11.5,13.3c-.2-1.4-.4-2.7-.5-4l2.1,1.2C993.2,117.3,992.6,118.2,992.1,119.2Zm14.2.6-8.4-4.5c1.1-1.9,2.3-3.8,3.5-5.7C1003.1,113,1004.7,116.4,1006.3,119.8Zm-6.5-19.2a52,52,0,0,0,5.5-2.1l-3.7,5.3Z"/>
      <path class="cls-2" d="M1188.4,357.8c-3.5,1.6-7.1,3.1-10.7,4.4a184.5,184.5,0,0,0-11.9-17.4,1.5,1.5,0,0,0-2.7,1.1c.9,6.6,1.9,13.2,2.8,19.8-3.5.9-7.1,1.6-10.8,2.2a1.5,1.5,0,0,0-.3,2.7l12.9,7c.5,3.4,1,6.7,1.4,10.1a1.2,1.2,0,0,0-1.9.9c-.2,1.4-.5,2.9-.8,4.3s2,2.8,2.8,1.2l.9-1.8a1.7,1.7,0,0,0,2.5-1.6,20,20,0,0,0-.4-2.4l3.5-6.3,12.3,6.7c1,.5,2.8-.4,2.2-1.7-2.3-5.5-4.8-10.9-7.6-16.1,2.5-3.7,5.1-7.4,7.8-11C1191.4,358.5,1189.6,357.2,1188.4,357.8Zm-21.6-6.7c2.8,3.9,5.5,8,8,12.1l-6,1.8C1168.2,360.4,1167.5,355.7,1166.8,351.1Zm9.6,14.7,2.8,4.9c-1.6,2.4-3.1,4.9-4.6,7.3l-4.2-2.3c-.4-2.6-.7-5.2-1.1-7.7Zm-16.4,4.3,6.4-1.4c.2,1.7.5,3.5.7,5.2Zm11.5,13.2c-.2-1.3-.4-2.6-.5-3.9l2.1,1.2Zm14.2.7-8.4-4.6c1.1-1.9,2.3-3.7,3.5-5.6C1182.5,377.1,1184.1,380.5,1185.7,384Zm-6.5-19.2,5.5-2.1c-1.3,1.7-2.5,3.5-3.7,5.3Z"/>
      <path class="cls-2" d="M66.5,273c-3.5,1.6-7,3-10.6,4.3A205.6,205.6,0,0,0,44,259.9a1.5,1.5,0,0,0-2.8,1.2c1,6.6,2,13.2,2.9,19.8-3.5.8-7.2,1.6-10.8,2.1a1.6,1.6,0,0,0-.4,2.8l13,7c.4,3.3.9,6.7,1.4,10a1.3,1.3,0,0,0-1.9.9c-.3,1.5-.5,2.9-.8,4.3s1.9,2.8,2.8,1.2l.9-1.8a1.7,1.7,0,0,0,2.5-1.6c-.1-.8-.3-1.6-.4-2.4s2.3-4.2,3.5-6.2l12.3,6.6c1,.6,2.7-.4,2.2-1.7-2.3-5.5-4.8-10.8-7.6-16q3.8-5.7,7.8-11.1C69.6,273.7,67.7,272.4,66.5,273ZM45,266.3c2.8,3.9,5.5,7.9,8,12q-3,1.1-6,1.8C46.4,275.5,45.7,270.9,45,266.3Zm9.6,14.6,2.7,5-4.5,7.2-4.2-2.2c-.4-2.6-.8-5.2-1.1-7.8C49.8,282.5,52.2,281.7,54.6,280.9Zm-16.4,4.3c2.1-.4,4.3-.8,6.4-1.4.2,1.8.5,3.5.7,5.3Zm11.5,13.3-.6-3.9,2.2,1.1Zm14.2.6-8.4-4.5,3.4-5.7C60.7,292.3,62.3,295.7,63.9,299.1Zm-6.5-19.2q2.7-.9,5.4-2.1l-3.6,5.3Z"/>
    </g>
  </g>
  <g id="ground">
    <ellipse class="cls-3" cx="639.9" cy="477" rx="406.2" ry="208.1"/>
  </g>
  <g id="trees">
    <g id="tree6">
      <path class="cls-4" d="M323.5,366.5c-.2-7.7-12.2-8.5-21.3-25.1-1.3-2.3-2.4-4.7-5.1-6.1-6.8-3.7-19.3.7-21.5,7.8-1.5,4.9,3.2,7.3,9.3,21s4.4,17.8,8.7,20.1C302.8,389.3,323.8,376.8,323.5,366.5Z"/>
      <path class="cls-5" d="M260.8,278.8c6.9-4.1,27.2,26.5,58.8,34.7,13,3.4,22.2,6.7,23.8,10,7,14.2-88.2,72.8-100.1,59.9-.9-1-1.3-2.5,2.6-18.4,11-44.6,10.2-27.3,15-50C262.6,306.9,258.4,280.3,260.8,278.8Z"/>
      <path class="cls-6" d="M255.4,266.6c6.1-3.6,20.7,18.1,46.5,22.1,10.6,1.6,18,3.4,19.2,5.8,4.7,10.2-79,61.6-87.9,52.7-.7-.7-.9-1.8,3.5-14.1,12.4-34.6,10.5-21.5,16.2-39.1C254.9,287.8,253.3,267.9,255.4,266.6Z"/>
      <path class="cls-7" d="M234.5,259.7c-4.9,2.9,5.1,21.4-1.8,41.3-2.8,8.2-4.4,14.1-3.1,15.8,5.5,7.2,73.9-33.6,70.9-43.3-.3-.8-1-1.3-11.4-2.7-29.5-3.9-19.3-.4-34-2.9C249.9,267.1,236.3,258.6,234.5,259.7Z"/>
      <path class="cls-8" d="M229.7,228.7c4.6-2.7,16.2,14.7,36,18.4,8.2,1.5,13.9,3.1,14.9,5.1,3.8,8.1-59.1,46.8-66.1,39.5-.6-.5-.8-1.4,2.3-11,8.8-27,7.6-16.7,11.5-30.4C229.7,245.4,228.1,229.7,229.7,228.7Z"/>
      <path class="cls-9" d="M209.1,214.4c-4.3,2.7,5.7,21.1.3,40.1-2.3,7.8-3.4,13.6-2.2,15.3,5.4,7.2,66.7-29.4,63.5-38.9-.2-.8-.9-1.3-10.6-3.2-27.4-5.1-17.9-1.3-31.6-4.3C223.7,222.3,210.7,213.5,209.1,214.4Z"/>
    </g>
    <g id="tree5">
      <path class="cls-4" d="M966,358.4c8.3-2.4,5.8-15.8,21.3-30.4,2.2-2.1,4.4-3.9,5.2-7.2,2.1-8.5-6.3-20.8-14.6-21.2-5.8-.3-7.1,5.5-20.3,16s-18,9.9-19.4,15.2C935.3,342.3,954.9,361.6,966,358.4Z"/>
      <path class="cls-5" d="M1043.7,265.2c6.5,6.3-21.1,37.1-21.1,73.8-.1,15.1-1,26.1-4.1,28.8-13.4,11.6-104.3-75.4-93.7-91.9.9-1.4,2.4-2.2,20.8-2.4,51.7-.7,32.6,3.3,58.7,2.1C1013.6,275.1,1041.4,262.9,1043.7,265.2Z"/>
      <path class="cls-6" d="M1055.4,255.9c5.7,5.5-13.8,27.7-10.8,56.8,1.2,12,1.4,20.6-.9,22.5-9.8,8.1-89.5-68.4-82.3-80.6.6-1,1.7-1.6,16.3-.2,41.3,3.7,26.4,5.3,47.1,6.5C1032.2,261.3,1053.4,253.9,1055.4,255.9Z"/>
      <path class="cls-7" d="M1057,231.1c-4.6-4.4-21.9,11.7-45.5,9.8-9.7-.8-16.6-.7-18.1,1.2-6.3,8,57.6,70.7,67.3,64.8.8-.5,1.2-1.5-.3-13.2-4.1-33.2-5-21.2-6.5-37.8C1053.3,249.9,1058.7,232.7,1057,231.1Z"/>
      <path class="cls-8" d="M1089.3,217.1c4.3,4.2-11.4,21.9-9.7,44.5.6,9.3.5,16-1.3,17.5-7.8,6.6-67.7-51-61.9-60.7.5-.8,1.4-1.2,12.7-.6,31.9,1.9,20.3,3.5,36.4,3.9C1071.2,221.9,1087.8,215.6,1089.3,217.1Z"/>
      <path class="cls-9" d="M1099.1,190.6c-4.2-4-21.4,12.3-43.6,11.7-9.2-.2-15.7.1-17.2,2-6.4,7.9,50.9,64.3,60.3,58.1.8-.5,1.2-1.4.4-12.5-2.2-31.3-3.6-19.8-4.2-35.6C1094.6,208.7,1100.6,192.1,1099.1,190.6Z"/>
    </g>
    <g id="tree4">
      <path class="cls-4" d="M828.6,317.9c7.5-7.5-3-20.2,4.9-44.8,1.1-3.5,2.4-6.7,1.3-10.7-2.7-10.2-18.9-18.4-27.9-14-6.4,3.1-4.4,10-12.2,28.9s-13.4,21.1-11.8,27.5C786.6,318.7,818.7,327.8,828.6,317.9Z"/>
      <path class="cls-5" d="M856.7,173.4c10.5,2.9-.8,51.7,20.7,90.8,8.8,16.1,14.3,28.3,12.5,33-7.4,20.2-154.9-19.1-153.3-42.9.1-2,1.3-3.8,20.6-14.7,54.6-31,36.7-15.7,63.7-32.2C830.5,201.5,852.9,172.3,856.7,173.4Z"/>
      <path class="cls-6" d="M863.6,156.6c9.3,2.6,1.6,37.5,21.8,66.7,8.4,12.1,13.6,21.1,12.3,24.5C892,262.1,762.5,227.4,763,210.2c0-1.4.9-2.6,17.2-9.8,46-20.1,31.1-9.8,53.9-20.6C842.1,175.9,860.3,155.7,863.6,156.6Z"/>
      <path class="cls-7" d="M850.9,129.3c-7.5-2-16.4,25.3-42.6,37.1-10.8,4.8-18.1,8.9-18.6,11.8-2,12.2,102.7,41.5,109.4,29.5.6-1,.5-2.2-8-13.9-23.8-32.8-17.7-19.5-29.1-36.3C858,151.5,853.6,130.1,850.9,129.3Z"/>
      <path class="cls-8" d="M877.1,95.5c6.9,2,.6,29.9,15.6,53,6.1,9.5,9.9,16.7,8.9,19.4-4.4,11.5-101.8-14.6-101.3-28.3.1-1.1.8-2.1,13.2-8,35-16.7,23.6-8.3,40.9-17.2C860.6,111.2,874.6,94.8,877.1,95.5Z"/>
      <path class="cls-9" d="M871.9,61.7c-6.7-1.8-15.5,25.5-39.5,37.9-9.8,5.1-16.6,9.4-17.1,12.2-2.1,12.2,91.7,38.5,98.1,26.4.5-1,.5-2.2-6.9-13.5-20.6-32-15.4-18.9-25.3-35.3C877.7,83.5,874.3,62.4,871.9,61.7Z"/>
    </g>
    <g id="tree3">
      <path class="cls-4" d="M699.5,267.3c5.6-7.3-5-17.1-1.2-39.3.5-3.1,1.3-6.1-.1-9.5-3.6-8.5-18.6-13.6-25.9-8.7-5.1,3.4-2.6,9.2-7,26.5s-9.1,19.9-6.9,25.3C663.2,273.2,692.1,277.1,699.5,267.3Z"/>
      <path class="cls-5" d="M706.3,138.8c9.5,1.3,5.6,44.9,29,76.1,9.6,12.9,15.7,22.8,14.8,27.1-4,18.4-136.5,2.2-137.9-18.6-.2-1.7.6-3.4,16-15.2,43.5-33.4,29.9-18,51.3-35.6C687.1,166.4,702.9,138.4,706.3,138.8Z"/>
      <path class="cls-6" d="M710.3,123.5c8.4,1.1,5.9,32.3,26.9,55.1,8.7,9.4,14.4,16.6,13.6,19.7-3.1,13.1-119.4-1.3-121.2-16.2-.1-1.2.5-2.4,13.8-10.6,37.4-23,25.7-12.2,44.1-24.4C694,142.8,707.3,123.1,710.3,123.5Z"/>
      <path class="cls-7" d="M696,101.4c-6.8-.9-11.2,23.8-32.4,37.2-8.8,5.5-14.7,10-14.7,12.5-.2,10.8,93.9,23.5,98.3,12.3.4-.9.1-2-8.6-11-24.6-25.5-17.7-14.8-29.6-28C704.8,119.7,698.4,101.7,696,101.4Z"/>
      <path class="cls-8" d="M714.5,68.9c6.3.9,4.2,25.9,20,44,6.4,7.5,10.6,13.3,10,15.7-2.4,10.5-89.9-.2-91.1-12.2-.1-1,.4-1.9,10.4-8.6,28.3-18.6,19.5-9.9,33.4-19.8C702.1,84.5,712.3,68.6,714.5,68.9Z"/>
      <path class="cls-9" d="M706,40.3c-6.1-.8-10.4,23.9-29.6,37.6-8,5.6-13.3,10.1-13.4,12.7-.3,10.7,84.1,22.2,88.2,10.9.3-.9.1-1.9-7.6-10.9-21.7-25.1-15.7-14.5-26.2-27.5C713.7,58.5,708.2,40.6,706,40.3Z"/>
    </g>
    <g id="tree2">
      <path class="cls-4" d="M579.3,307.9c4-9.8-10.5-17.5-12.5-43.3-.3-3.6-.3-7.1-2.9-10.4-6.4-8.4-24.4-9.9-31.1-2.4-4.7,5.3-.2,11-.3,31.4s-4.4,24.6-.4,29.9C540.7,324.6,573.8,320.8,579.3,307.9Z"/>
      <path class="cls-5" d="M550.3,163.5c10.9-1.3,19,48.2,53.7,76.2,14.3,11.5,23.9,20.7,24.1,25.8C628.9,287,477.5,306.6,470,284c-.6-1.9-.3-3.9,13.5-21.5,38.7-49.3,27.9-28.3,46.7-53.9C536.8,199.5,546.4,164,550.3,163.5Z"/>
      <path class="cls-6" d="M550.4,145.4c9.6-1.1,15.7,34.1,45.5,53.4,12.3,8,20.6,14.4,20.6,18,.3,15.4-132.7,32.5-138.8,16.4-.5-1.3-.2-2.8,12.2-15.6,34.9-36.1,25-20.9,42-39.5C537.9,171.4,547,145.8,550.4,145.4Z"/>
      <path class="cls-7" d="M528.3,125c-7.8,1-5.7,29.6-25.4,50.4-8.1,8.6-13.4,15.2-12.7,18.1,2.8,12,110.7-.6,112.4-14.3.2-1.2-.4-2.2-12.6-9.8-34.5-21.3-23.8-11.4-40.8-22.6C543.2,142.8,531.1,124.6,528.3,125Z"/>
      <path class="cls-8" d="M539.6,83.8c7.2-.9,12,27.4,34.6,43.1,9.3,6.4,15.5,11.6,15.6,14.5.3,12.3-99.7,25.2-104.4,12.3-.4-1-.2-2.2,9.1-12.4,26-28.8,18.7-16.6,31.3-31.5C530.3,104.6,537,84.1,539.6,83.8Z"/>
      <path class="cls-9" d="M522,54.5c-6.9.8-4.7,29.4-22.1,50-7.2,8.5-11.9,15-11.2,17.8,2.6,12.1,99.4.8,100.8-12.8.1-1.1-.5-2.2-11.5-9.9-31.3-21.7-21.5-11.7-36.9-23.1C535.7,72.4,524.5,54.2,522,54.5Z"/>
    </g>
    <g id="tree1">
      <path class="cls-4" d="M439.6,287.9c.9-7.6-10.7-10.1-17.1-27.6-1-2.5-1.7-4.9-4.1-6.8-6.1-4.6-18.9-2-22.1,4.5-2.2,4.6,2,7.7,6,21.9s1.7,18,5.5,20.9C416.1,307.1,438.4,298,439.6,287.9Z"/>
      <path class="cls-5" d="M391.2,193.1c7.4-3,22.7,29.8,52.3,42.5,12.2,5.2,20.7,9.7,21.8,13.2,4.8,14.8-96.7,58.2-106.4,43.9-.8-1.2-.9-2.7,5.2-17.6,17.3-41.9,13.9-25.2,21.9-46.7C388.9,220.8,388.6,194.2,391.2,193.1Z"/>
      <path class="cls-6" d="M387.7,180.5c6.5-2.7,17.6,20.7,42.1,28.3,10.1,3.1,17.2,5.9,17.9,8.5,3.2,10.6-86,48.5-93.4,38.6-.6-.9-.6-2,5.5-13.3,17.2-32,13.3-19.4,21.4-35.7C384.1,201.1,385.4,181.4,387.7,180.5Z"/>
      <path class="cls-7" d="M368.3,170.6c-5.2,2.2,1.9,21.7-7.7,40.1-4,7.6-6.4,13.2-5.4,15,4.3,7.8,77-22.1,75.5-31.9-.1-.8-.8-1.5-10.7-4.4-28.2-8-18.8-3.2-32.8-7.7C382.2,180.1,370.2,169.8,368.3,170.6Z"/>
      <path class="cls-8" d="M368.1,139.7c4.9-2,13.8,16.8,32.5,23.3,7.8,2.6,13.1,5,13.8,7,2.6,8.5-64.5,37.1-70.3,29-.5-.6-.5-1.5,3.9-10.4,12.5-25.1,9.8-15.2,15.7-28C365.8,156,366.4,140.5,368.1,139.7Z"/>
      <path class="cls-9" d="M350.2,122.8c-4.7,2,2.5,21.4-5.7,39.1-3.3,7.3-5.2,12.8-4.3,14.7,4.3,7.8,69.4-19,67.7-28.7-.2-.8-.8-1.5-10-4.7-26-9-17.2-3.9-30.1-8.8C363.2,132.6,351.8,122.1,350.2,122.8Z"/>
    </g>
  </g>
  <g id="pumpkin">
    <g id="pumpkin-2" data-name="pumpkin">
      <g>
        <g id="pumpBase">
          <g>
            <path class="cls-10" d="M728,373.1c-3.8,2.1-5.7.8-11.2,1.9-7.1,1.3-11,9.9-12.6,13.4-7,15.4-3.4,59.8,26.9,84.9,35.1,29.1,85.3,15.2,121.9,5,28.8-8,52.2-14.5,62.1-36.1,13.5-29.4-5.6-70.3-18.4-72.3-1.8-.2-6.2-.2-10.1-3.3s-4.5-3.9-8-6.8c-5.5-4.4-10.5-1.2-23.1-3.3-9.5-1.6-9.3-6-16.8-5.9-9.4.1-11.7,6.9-20.2,5.9-6-.7-5.7-4.2-13.4-5.9s-9.2,1.4-16.8,0c-9.4-1.8-9.7-2.8-15.9-2.5s-7.4,3-17.8,7.5-13.9.4-18.4,5.1S732.7,370.5,728,373.1Z"/>
            <path class="cls-11" d="M698.3,398.5c5.2-4.1,15-12,26.9-10.9,7.3.6,9.6,4,24.4,7.5,10.8,2.6,11,1.1,16,3.4,10.8,5,11.1,12.6,19.3,14.3,6,1.2,6.6-2.6,16.8-4.2,13.8-2.2,17.2,4.1,28.6.8,6-1.7,4.9-3.4,14.3-6.7s10.3-1.9,15.9-5,5.7-5.6,11.8-8.4c2.6-1.2,3.7-1.4,12.6-3.4,13.4-3.1,12.8-3.3,14.3-3.4,10.2-.5,18.7,10.5,23.5,16.8,20.6,27.1,20.3,59.8,20.2,63.9-.3,13.7-.8,34.6-15.1,50.4-7.4,8.1-17.2,13.5-26.1,18.5A122.1,122.1,0,0,1,877.3,543c-12.3,4-16,2.8-27.7,7.6s-10.8,4.8-16.8,5.8c-13,2.2-16.2-5.8-31.1-5-7.9.5-6.7,3.2-19.3,5.1-8.6,1.3-15.5,2.3-23.6,0s-10.7-6.4-17.6-5.9-11.3,3.7-15.3.7-6.1,2.4-20.8-15c-10.3-12-15.4-18-20.2-27.7A103.2,103.2,0,0,1,674,464.9C673.8,456.2,673,418.8,698.3,398.5Z"/>
          </g>
          <path class="cls-12" d="M818.4,315.9c3.4-.3,7.9,7.2,8.6,13.8.4,3.2-.3,4.5-1.5,11.7-1.5,9-.7,8.3-1.9,14.7-1.9,10.5-4.1,13-5.2,23.1a30.5,30.5,0,0,0,0,9.2c.4,3.6.7,6.4,2.5,9.2,2.9,4.6,6.7,4.8,6.6,7.2s-3.8,5-7.6,5.2c-6.1.5-7.9-5.5-13.8-5.7s-10.8,8-13.1,6.8,1.1-12.3,4.9-26.2c2.1-7.5,5.3-20.1,11.8-45.5C814.1,322.2,815.3,316.2,818.4,315.9Z"/>
        </g>
        <g id="shade">
          <path class="cls-10" d="M912.2,434.3c-.2-1.9-3.2-1.9-3,0a341.8,341.8,0,0,1,1.8,39.2c-.1,11.7-.3,23.6-2.6,35.1s-6.6,21-15.8,27.4-20.3,7.9-30.8,9.5a58,58,0,0,0,4.7-9.3,89.3,89.3,0,0,0,5.9-31.5c.5-23.6-6.8-46.4-14-68.6-.5-1.8-3.4-1-2.9.8,6.4,19.8,12.9,39.9,13.8,60.8a92.2,92.2,0,0,1-2.8,28.7c-2.1,8.1-5.7,20.1-14.2,23.6s-16.5,4.3-24.7,2.4c-10.9-2.5-18.3-12.8-24.1-21.6A123.5,123.5,0,0,1,783,473.1c-.2-1.9-3.2-1.9-3,0a126.8,126.8,0,0,0,23.8,63.4c4.5,6.2,9.6,12.4,16.3,16.2-7.7-2.4-16-1.6-24,0-11.4,2.2-24.4,6.5-35.6,1.1-5.7-2.7-9.7-8.1-13.3-13.2a172.6,172.6,0,0,1-9.4-14.6,170.1,170.1,0,0,1-15-34.8c-.6-1.9-3.5-1.1-2.9.8a175.3,175.3,0,0,0,14.4,34c5.4,9.5,11.8,21.2,20.7,27.9,20.8,15.7,47.1-8.1,68.8,3.5,1.7.9,3.2-1.5,1.7-2.5l1.3.4c8,2,16.3.5,24.3-1.8h.4a12.7,12.7,0,0,0,1.8-.6l6.8-2.2a1.7,1.7,0,0,0,.1-3c.1-.1.2-.2.2-.3a1.7,1.7,0,0,0,1.8,1.2c11-1.7,22.6-3.5,31.9-9.9s13.5-15,16.1-24.8c3.1-11.4,3.5-23.6,3.8-35.4A361.4,361.4,0,0,0,912.2,434.3Z"/>
          <path class="cls-10" d="M736.2,392.5A127.8,127.8,0,0,0,725,415.4c-.6,1.9,2.3,2.6,2.9.8A120.3,120.3,0,0,1,738.8,394,1.5,1.5,0,0,0,736.2,392.5Z"/>
          <path class="cls-10" d="M721.8,432.4a1.5,1.5,0,0,0,0,3A1.5,1.5,0,0,0,721.8,432.4Z"/>
          <path class="cls-10" d="M720.3,442.1a1.5,1.5,0,0,0,0,3A1.5,1.5,0,0,0,720.3,442.1Z"/>
          <path class="cls-10" d="M718.3,456.9a1.5,1.5,0,0,0,0,3A1.5,1.5,0,0,0,718.3,456.9Z"/>
          <path class="cls-10" d="M782.2,415c-2-5.1-6.6-9-9-14.1-.8-1.7-3.4-.2-2.6,1.6a52.2,52.2,0,0,0,6.1,9.4c4,5.2,3.8,9.7,2.7,15.9-.3,1.9,2.6,2.7,2.9.8C783.1,424.1,783.9,419.4,782.2,415Z"/>
          <path class="cls-10" d="M779.1,431.8v3.1a1.5,1.5,0,0,0,3,0v-3.1A1.5,1.5,0,0,0,779.1,431.8Z"/>
          <path class="cls-10" d="M780.1,440a1.5,1.5,0,0,0-1.5,1.5v1.1a1.5,1.5,0,0,0,1.5,1.5,1.6,1.6,0,0,0,1.5-1.5v-1.1A1.5,1.5,0,0,0,780.1,440Z"/>
          <path class="cls-10" d="M778.1,449.3a23.6,23.6,0,0,0-.5,7c.1,2,3.1,2,3,0a18.5,18.5,0,0,1,.4-6.2C781.4,448.2,778.5,447.4,778.1,449.3Z"/>
          <path class="cls-10" d="M846.4,410.5a15.9,15.9,0,0,0-6.7-8.6,1.5,1.5,0,0,0-1.8,2.4,1.1,1.1,0,0,1,.5.9,1.2,1.2,0,0,0,1.8.9,12.9,12.9,0,0,1,3.3,5.2C844.1,413.1,847,412.3,846.4,410.5Z"/>
          <path class="cls-10" d="M849.3,414.6c-.2-.7-.3-1.4-.5-2a1.6,1.6,0,0,0-1.9-1.1,1.5,1.5,0,0,0-1,1.9c.2.6.3,1.3.5,2a1.5,1.5,0,1,0,2.9-.8Z"/>
          <path class="cls-10" d="M851.3,420.9l-1.1-2.6a1.6,1.6,0,0,0-2.1-.5,1.7,1.7,0,0,0-.5,2.1l1.1,2.5a1.5,1.5,0,0,0,2,.5A1.5,1.5,0,0,0,851.3,420.9Z"/>
          <path class="cls-10" d="M898.9,401.4a40.1,40.1,0,0,0-10.4-12.7c-2.4-1.9-6.8-6-9.9-3.4-1.4,1.3.7,3.4,2.2,2.2s8,5.4,8.9,6.3a37.7,37.7,0,0,1,6.6,9.2C897.2,404.7,899.7,403.2,898.9,401.4Z"/>
          <path class="cls-10" d="M902.3,411.2l-.5-1a1.4,1.4,0,0,0-2-.6,1.5,1.5,0,0,0-.6,2.1l.5,1a1.6,1.6,0,0,0,2.1.5A1.5,1.5,0,0,0,902.3,411.2Z"/>
          <path class="cls-10" d="M905.1,422.2c-.2-1-.4-2-.5-3a1.5,1.5,0,1,0-2.9.8c.2,1,.3,2,.5,3a1.5,1.5,0,0,0,1.8,1.1A1.6,1.6,0,0,0,905.1,422.2Z"/>
        </g>
        <g id="face">
          <polygon class="cls-13" points="838.3 439 827.5 468.9 862.1 468.9 838.3 439"/>
          <polygon class="cls-13" points="766.1 445.1 750.8 470.5 781.1 472.7 766.1 445.1"/>
          <polygon class="cls-13" points="802.2 468.9 795.4 487.7 812.7 486 802.2 468.9"/>
          <polygon class="cls-13" points="769.5 502 769.5 530.2 792.2 503.7 769.5 502"/>
          <polygon class="cls-13" points="801.8 526.8 810.5 500.9 792.2 503.7 801.8 526.8"/>
          <polygon class="cls-13" points="832.8 526.8 810.5 500.9 837.2 496.5 832.8 526.8"/>
          <polygon class="cls-13" points="859 518 859 487.7 837.2 496.5 859 518"/>
        </g>
      </g>
      <g id="stem">
        <path class="cls-14" d="M821.8,398.1c-2.5-6.4-2.6-12.6-2.3-19.4a1.5,1.5,0,0,0-3,0c-.1,1.9-.2,3.7-.2,5.6a1,1,0,0,0-1-.4,1.5,1.5,0,0,0-1.5,1.5v.5a1.5,1.5,0,0,0,1.5,1.5,1.2,1.2,0,0,0,1-.5l.3,3.4c.5,4.3,2.3,7.7,3.6,11.8a16.3,16.3,0,0,1,.9,4.5L817,408c-2.2.1-4.7-1.9-6.4-3.1s-4-3-6.5-3.3a6,6,0,0,0-5.2,1.3c-1.1,1.1-1.1,3.7-3,1.4-.6-.8.2-4.6.3-5.5a86.4,86.4,0,0,1,6.9-27.3c.8-1.8-1.8-3.3-2.5-1.5a88.2,88.2,0,0,0-7.6,31.6c-.1,2.4-.5,6.2,2.1,7.5s3.5-2.1,5.5-3.4,4.7-.6,6.2.2a17.9,17.9,0,0,1,2.8,2,20.7,20.7,0,0,0,5.8,2.8c2.5.6,6.4,1.3,8-1.3S823,401.1,821.8,398.1Z"/>
        <path class="cls-14" d="M817.9,405.4c-.4-1.4-.7-2.8-1.1-4.1a1.5,1.5,0,0,0-2.9.8c.4,1.3.7,2.7,1.1,4.1S818.4,407.2,817.9,405.4Z"/>
        <path class="cls-14" d="M814.8,390.5a1.5,1.5,0,0,0-1.5,1.5v1.5a1.7,1.7,0,0,0,.5,1.2,1.4,1.4,0,0,0-1,1.4v1.5a1.5,1.5,0,1,0,3,0v-1.5a1.6,1.6,0,0,0-.6-1.2,1.5,1.5,0,0,0,1.1-1.4V392A1.5,1.5,0,0,0,814.8,390.5Z"/>
        <path class="cls-14" d="M818.4,363.4a1.5,1.5,0,0,0,0,3A1.5,1.5,0,0,0,818.4,363.4Z"/>
        <path class="cls-14" d="M808.8,392.1a41.2,41.2,0,0,0-1.5,8.4,1.5,1.5,0,0,0,2.5,1.1l.9-.9a1.4,1.4,0,0,0-.2-2.2,55.9,55.9,0,0,1,1.2-5.6C812.3,391.1,809.4,390.3,808.8,392.1Z"/>
        <path class="cls-14" d="M811.2,384.4a1.5,1.5,0,0,0-1.5,1.5v2.5a1.5,1.5,0,0,0,3,0v-2.5A1.5,1.5,0,0,0,811.2,384.4Z"/>
        <path class="cls-14" d="M812.2,374.7a1.5,1.5,0,0,0-1.5,1.5v.5a1.5,1.5,0,0,0,1.5,1.5,1.6,1.6,0,0,0,1.5-1.5v-.5A1.5,1.5,0,0,0,812.2,374.7Z"/>
        <path class="cls-14" d="M815.2,364a1.6,1.6,0,0,0-1.9,1,7.5,7.5,0,0,1-.5,1.6,1.5,1.5,0,0,0,1.1,1.8,1.5,1.5,0,0,0,1.8-1,7.5,7.5,0,0,0,.5-1.6A1.5,1.5,0,0,0,815.2,364Z"/>
        <path class="cls-14" d="M817.3,357.3a1.5,1.5,0,0,0,0,3A1.5,1.5,0,0,0,817.3,357.3Z"/>
        <path class="cls-14" d="M819.4,351.7a1.5,1.5,0,0,0,0,3A1.5,1.5,0,0,0,819.4,351.7Z"/>
        <path class="cls-14" d="M821.9,345.6a1.5,1.5,0,0,0,0,3A1.5,1.5,0,0,0,821.9,345.6Z"/>
        <path class="cls-14" d="M825.6,327a27.4,27.4,0,0,1-3-7.5,1.5,1.5,0,0,0-2.5-.6l-.3-.8c-.4-1.9-3.3-1.1-2.9.8a41.9,41.9,0,0,0,4.2,10.6,1.5,1.5,0,0,0,2.7-.3A1.6,1.6,0,0,0,825.6,327Z"/>
      </g>
    </g>
  </g>
  <g id="ghost">
    <g>
      <path id="sheet" class="cls-15" d="M636.7,536.6c1.8-12.4-20.8-66.2-20.8-66.2l-.3-2.4c1.5-4.7,1.8-5.5,3.4-7.6s3.2-2.5,5.6-4.3,5.3-3.7,6.6-5.4c2.8-3.7-1.9-11.6-3.6-14.3-6.5-11.2-10-23.9-15.3-35.8-6.6-14.9-3.5-11.8-11.7-31.6-4.7-11.2-11.5-26.1-20.4-36.8a108,108,0,0,1-8.7-11.6c-4.8-4.1-7.8-3.3-10.2-6.3-4.3-5.1-7.5-11.4-8.5-15.8-3.4-14.3-2.9-10.6-10.9-30.6-5.7-14.2-3.6-15.1-10.3-31.7-.8-2-3.7-8.3-9.7-20.9-9.2-19.6-11.4-23.9-16.8-26.1s-13.5.2-14.3.5c-5.4,2.4-8.1,6.8-12.8,15.9-9.3,17.9-11.7,24.5-11.7,24.5-12.8,34.4-11.2,27.1-15.8,41.3-8.7,26.8-14,51.6-17.9,51.1-1.6-.2-1.7-4.3-4.6-5.1s-7.6,3.3-9.2,5.1c-14.9,16.3-22,30.6-22,30.6a327.1,327.1,0,0,0-16.3,40.4c-.9,2.5-2.8,12.1-6.6,31.1-1,4.7-2,10,1,13.3s7.1,1.9,9.6,5.7,1.4,7.8,3.9,12.5,10.9,5.8,12.5,5.8c8.5.2,13.4-3.9,15.9-1.5s5.6,5.3,5.2,6.7c-5.5,22.4-8.3,39.7-8.8,50.4-.3,8.2-2.5,20.1-1.7,23.4,1.3,5.4,3.7,14,12.3,19.4,6.2,3.9,10.9,5.4,21.6,4.2,14.1-1.5,15.1-5.2,25-4.6s9,4.4,20.4,5.2c8.5.5,13.7-1.3,18.9,2.5,3.5,2.5,2.8,4.5,5.6,6.1s8.6,1.8,24.5-7.6,15.4-12.2,25.6-16.4c6.5-2.7,14.9-6.1,24-3.5,6.7,1.9,9.8,6.5,15.9,7.7s18.9-8.6,31.4-17.3"/>
      <g id="ghostDetails">
        <path class="cls-16" d="M638.4,534.6c-.7-5.6-3.1-11.3-4.7-16.7s-3.5-11.7-5.4-17.4c-3.8-11.9-7.9-23.6-12.2-35.3,1.1-.9,2.1-1.8,3.1-2.5,4-3,12.2-6.9,13.6-12.2s-3.4-12.4-5.4-17.3c-5.7-14-10.2-28.4-15.2-42.6s-10.8-30.1-18.6-44-16.7-26.6-30.3-34.2a2,2,0,0,0-1-.2c-7.6-2.3-13.3,16.9-14.8,21.5-5.1,15.2-7.2,31.2-9.8,46.9s-5.6,34.1-8.3,51.2c-.8,5.1-1.8,11.1,1,15.7s10.7,7,15.8,9.3c3.6,1.7,7.2,3.4,10.9,4.9,1.9.8,3.7,1.6,5.8.9s5.4-4.1,8.9-5.1a22.9,22.9,0,0,1,11.9.1c4.9,1.2,9.4,3.7,13.9,6.2h.1c2.3,1.3,4.6,2.6,7,3.7s3.7,1.9,5.8,1.3a10.2,10.2,0,0,0,3.1-1.6q10,27.3,18.3,55.2c1.2,3.8,4.2,9.9,3.6,14s-7.3,4-10.6,5.4c-6.5,2.8-12.5,10.3-20.1,9-1.9-.3-2.7,2.5-.8,2.9,7.8,1.4,13.2-4.3,19.5-7.9S639.6,544.3,638.4,534.6Zm-33.7-70.4a51.2,51.2,0,0,1-5.2-2.7h0c-9.8-9.3-9.8-25.2-11.5-37.7-2.1-15.7-4.3-31.4-6.4-47.1-.2-1.9-3.1-1.1-2.9.8l6.9,51c1.3,9.8,2,20.8,7.2,29.4-7.5-3.6-16.2-6-24.2-2.5-1.4.7-2.6,1.7-3.9,2.5l-.7-.2c-13.6-.5-12.2-17.6-11.3-26.8,1-11.2,2.1-22.4,3.2-33.6l6.4-67.1c.2-1.9-2.8-1.9-3,0-2.5,26.3-5,52.7-7.6,79l-1.8,19.7c-.5,5.3-1.3,10.6-.7,15.9s3.7,11.5,8.6,14.2c-2.9-.9-6-2.9-8.3-3.9-5.3-2.4-15.5-4.8-17.4-11.1s.4-12.5,1.3-18.3L537,404c2.4-15.1,4.6-30.4,7.5-45.5a181.2,181.2,0,0,1,5.1-21.5c.7-2.3,8.5-25.4,13.1-21.1a1.2,1.2,0,0,0,1.2.4c20.3,12.6,31.4,37.7,39.6,59.1s15.6,45.4,24.9,67.5c1.2,3,2.7,5.9,0,9.1-1,1.3-3.2,2.5-4.6,3.5l-8.4,6.3C611.7,464.6,609.6,466.4,604.7,464.2Z"/>
        <path class="cls-16" d="M473.7,409.4c-3-8.3-5.7-16.6-9.5-24.6s-7.8-16.2-11.4-24.5-7.4-17.6-10.7-26.6c-2.2-6.1-4-12.5-9.5-16.5h-.4c-1.3-2.7-4.7-3.4-7.5-1.9-5.1,2.8-9,10.2-12.3,14.8A238.5,238.5,0,0,0,390,368.5a244,244,0,0,0-14.7,40.7c-1.8,7.2-3.6,14.6-4.2,22-.1,2.1-.4,4.7,1.1,6.5s3.9,1.7,5.7,2.9c4.6,2.9,6.2,9.3,9.1,13.7a17.9,17.9,0,0,0,11.8,7.8,65.6,65.6,0,0,0,20.8.9c-1.7,11.2-3.5,22.3-5.2,33.4s-4,22-5,33c-1.4,17,7.9,32.6,25,36.8,1.8.4,2.6-2.5.8-2.9a30.4,30.4,0,0,1-19.3-14.4c-5-8.8-3.8-18.5-2.3-28.1,3-19.4,6.1-38.8,9.1-58.1a73.5,73.5,0,0,0,17.7-4.9,32.9,32.9,0,0,0,8.1-4.7c1.8-1.4,3.2-3.2,4.9-4.7a1.4,1.4,0,0,0,2.2-1.2c0-.2-.1-.3-.1-.5l1-.5c5.7-2.9,12.5-2,18.1-5C487.8,434.2,477.1,419.1,473.7,409.4Zm-33.3,45.1a62.4,62.4,0,0,1-21.7,5.4,64.4,64.4,0,0,1-19.1-.7c-6.3-1.4-9.5-5.2-12.4-10.6-1.6-3.2-3.2-6.5-5.8-9a12.3,12.3,0,0,0-3.3-2.3,20.9,20.9,0,0,1-2.3-.8c-3-2.3-1.5-7.6-1-10.6,1.8-12.1,5.4-24.1,9.5-35.6a229.7,229.7,0,0,1,16.9-37.1c3.4-6,7-11.8,10.9-17.5q2.8-4.2,6-8.4c.9-1.3,1.9-2.5,2.9-3.8s7.8-10.1,8.9-4.1c.1,1,1,1.2,1.8.9,4.7,3.9,6.2,10.5,8.2,16s3.7,9.7,5.7,14.5a1.3,1.3,0,0,0-.7,1.7c9.2,30.1,4.8,61.8,7.5,92.7C448.3,448.4,445.3,452.3,440.4,454.5Zm14.9-10.9c-2.2-27.1.8-54.7-4.8-81.3,4.1,9.1,8.6,18.2,12.7,27.4,2.7,6.1,4.8,12.4,7,18.8s5.4,12.1,7.3,18.3C482,441.3,464.6,439.6,455.3,443.6Z"/>
        <path class="cls-16" d="M554.5,542.4c-2.1-9.3-4.8-18.5-7.6-27.6a543.4,543.4,0,0,0-19.1-52.2c-.8-1.8-3.4-.3-2.6,1.5,6.4,15.1,12.1,30.4,17.1,46.1,2.3,7.2,4.5,14.6,6.5,21.9s6.9,18.4,1.4,24.2a1.5,1.5,0,0,0,2.1,2.1C556.6,554,555.8,548,554.5,542.4Z"/>
        <path class="cls-16" d="M470.2,557.8c-4.5-4.2-5.6-10.1-6.5-15.9l-3.6-22.4-6.9-43.7c-.3-1.9-3.2-1.1-2.9.8,2.5,15.9,5,31.7,7.6,47.6,1.1,7.4,2.1,14.7,3.5,22,1,5.2,2.7,10,6.6,13.7C469.4,561.2,471.6,559.1,470.2,557.8Z"/>
        <path class="cls-16" d="M509.6,301.6c-.2-1.9-3.2-1.9-3,0a415.6,415.6,0,0,1-4.7,95.2c-7.6-17.2-6.4-36.7-5.4-55.1q1.8-33.4,6.2-66.7c.3-1.9-2.7-1.9-3,0-3.1,23.5-5.3,47-6.4,70.6-.9,19.2-1.4,39.4,8,56.8a1.5,1.5,0,0,0,2.7-.3A418,418,0,0,0,509.6,301.6Z"/>
        <path class="cls-16" d="M487.9,270.4c-1,15.7-2.4,31.5-4.2,47.2-1,8.3-2.1,16.7-3.3,25-.6,3.6-1.1,7.1-1.7,10.7-.3,1.7-.5,3.3-.9,4.9s-4.6,8.4-6.1,3.7c-.6-1.9-3.5-1.1-2.9.8,1.4,4.3,7,4.6,9.8,1.3s2.5-6.6,3-9.9c.9-5.8,1.8-11.7,2.6-17.5q4.7-33,6.7-66.2C491,268.4,488,268.5,487.9,270.4Z"/>
        <path class="cls-16" d="M419.8,378.2a1.5,1.5,0,0,0-3,0c.4,13.1.5,26.3.1,39.4-.2,6.2-.4,12.3-.9,18.5s-2.2,14.3-8.9,17.9c-1.7.9-.2,3.4,1.5,2.6,11.1-5.9,10.5-20.3,11-31.1C420.3,409.7,420.3,393.9,419.8,378.2Z"/>
        <ellipse cx="484.9" cy="240.8" rx="6.1" ry="12.3"/>
        <ellipse cx="508.6" cy="240.8" rx="6.1" ry="12.3"/>
      </g>
    </g>
  </g>
</svg>
